<svg viewBox="0 0 512 512" xmlns="http://www.w3.org/2000/svg"><defs><radialGradient id="bg" cx="62%" cy="33%" r="90%"><stop offset="0%" stop-color="#1b2433"/><stop offset="55%" stop-color="#0e1118"/><stop offset="100%" stop-color="#08090c"/></radialGradient></defs><rect width="512" height="512" fill="url(#bg)"/><g transform="translate(256,256) rotate(-27) scale(2.5)">
  <rect x="-49" y="-6" width="9" height="12" rx="2.5" fill="#a9661a"/>
  <rect x="-42" y="-7" width="22" height="14" rx="3.5" fill="#f5a623"/>
  <rect x="-23" y="-9.5" width="6" height="19" rx="2" fill="#a9661a"/>
  <rect x="-19" y="-10.5" width="27" height="21" rx="4" fill="#f5a623"/>
  <rect x="5" y="-12.5" width="6" height="25" rx="2" fill="#a9661a"/>
  <rect x="9" y="-13.5" width="30" height="27" rx="4.5" fill="#f5a623"/>
  <rect x="36" y="-16.5" width="8" height="33" rx="2.5" fill="#a9661a"/>
  <ellipse cx="44" cy="0" rx="4.5" ry="15" fill="#1c1206"/>
  <ellipse cx="44" cy="0" rx="4.5" ry="15" fill="none" stroke="#ffc56b" stroke-width="1.4"/>
  <rect x="-41" y="-5.5" width="78" height="2.4" rx="1.2" fill="#ffc56b" opacity="0.55"/>
  <g transform="translate(52,-16) rotate(27)" fill="#ffc56b">
    <path d="M0,-7.6 L1.7,-1.7 L7.6,0 L1.7,1.7 L0,7.6 L-1.7,1.7 L-7.6,0 L-1.7,-1.7 Z"/>
  </g></g></svg>